<svg xmlns="http://www.w3.org/2000/svg" xmlns:xlink="http://www.w3.org/1999/xlink" width="60" zoomAndPan="magnify" viewBox="0 0 45 44.999999" height="60" preserveAspectRatio="xMidYMid meet" version="1.0"><defs><clipPath id="319d08275c"><path d="M 21 15 L 34.648438 15 L 34.648438 44 L 21 44 Z M 21 15 " clip-rule="nonzero"/></clipPath><clipPath id="b80c1feacc"><path d="M 33 43 L 34.648438 43 L 34.648438 45 L 33 45 Z M 33 43 " clip-rule="nonzero"/></clipPath></defs><path fill="#a6a2a8" d="M 33.285156 25.839844 L 9.023438 25.839844 L 9.023438 24.699219 L 33.285156 24.699219 L 33.285156 25.839844 " fill-opacity="1" fill-rule="nonzero"/><path fill="#a6a2a8" d="M 25.804688 12.484375 C 25.804688 9.929688 23.722656 7.863281 21.15625 7.863281 C 18.585938 7.863281 16.503906 9.929688 16.503906 12.484375 C 16.503906 15.035156 18.585938 17.105469 21.15625 17.105469 C 23.722656 17.105469 25.804688 15.035156 25.804688 12.484375 " fill-opacity="1" fill-rule="nonzero"/><path fill="#000000" d="M 18.058594 15.929688 L 9.519531 37.152344 C 9.125 38.125 7.660156 43.574219 8.261719 43.8125 L 8.445312 43.886719 C 9.046875 44.125 11.765625 39.175781 12.15625 38.203125 L 20.660156 17.078125 C 19.664062 16.972656 18.765625 16.558594 18.058594 15.929688 " fill-opacity="1" fill-rule="nonzero"/><g clip-path="url(#319d08275c)"><path fill="#000000" d="M 32.792969 37.152344 L 24.253906 15.929688 C 23.546875 16.558594 22.644531 16.972656 21.652344 17.078125 L 30.152344 38.203125 C 30.546875 39.175781 33.261719 44.125 33.867188 43.886719 L 34.046875 43.8125 C 34.652344 43.574219 33.1875 38.125 32.792969 37.152344 " fill-opacity="1" fill-rule="nonzero"/></g><g clip-path="url(#b80c1feacc)"><path fill="#a6a2a8" d="M 34.1875 43.445312 C 34.171875 43.644531 34.128906 43.78125 34.046875 43.8125 L 33.867188 43.886719 C 33.820312 43.902344 33.761719 43.886719 33.691406 43.847656 C 33.894531 44.238281 34.300781 44.929688 34.40625 44.890625 L 34.445312 44.875 C 34.574219 44.820312 34.292969 43.753906 34.1875 43.445312 " fill-opacity="1" fill-rule="nonzero"/></g><path fill="#000000" d="M 21.15625 7.863281 C 21.785156 7.863281 22.386719 7.988281 22.933594 8.210938 L 22.933594 4.359375 C 22.933594 3.726562 22.421875 3.21875 21.785156 3.21875 L 20.523438 3.21875 C 19.890625 3.21875 19.375 3.726562 19.375 4.359375 L 19.375 8.210938 C 19.925781 7.988281 20.527344 7.863281 21.15625 7.863281 " fill-opacity="1" fill-rule="nonzero"/><path fill="#000000" d="M 23.445312 12.484375 C 23.445312 11.226562 22.421875 10.207031 21.15625 10.207031 C 19.890625 10.207031 18.867188 11.226562 18.867188 12.484375 C 18.867188 13.742188 19.890625 14.757812 21.15625 14.757812 C 22.421875 14.757812 23.445312 13.742188 23.445312 12.484375 " fill-opacity="1" fill-rule="nonzero"/><path fill="#a6a2a8" d="M 20.523438 3.21875 L 21.785156 3.21875 C 21.796875 3.21875 21.808594 3.21875 21.824219 3.21875 L 21.824219 0.503906 C 21.824219 0.269531 21.628906 0.078125 21.390625 0.078125 L 20.917969 0.078125 C 20.679688 0.078125 20.488281 0.269531 20.488281 0.503906 L 20.488281 3.21875 C 20.5 3.21875 20.511719 3.21875 20.523438 3.21875 " fill-opacity="1" fill-rule="nonzero"/><path fill="#000000" d="M 21.652344 27.058594 C 21.652344 27.148438 21.578125 27.222656 21.488281 27.222656 L 20.824219 27.222656 C 20.730469 27.222656 20.660156 27.148438 20.660156 27.058594 L 20.660156 23.476562 C 20.660156 23.386719 20.730469 23.3125 20.824219 23.3125 L 21.488281 23.3125 C 21.578125 23.3125 21.652344 23.386719 21.652344 23.476562 L 21.652344 27.058594 " fill-opacity="1" fill-rule="nonzero"/></svg>