<svg xmlns="http://www.w3.org/2000/svg" xmlns:xlink="http://www.w3.org/1999/xlink" width="60" zoomAndPan="magnify" viewBox="0 0 45 44.999999" height="60" preserveAspectRatio="xMidYMid meet" version="1.0"><defs><clipPath id="02a6b82a6d"><path d="M 37 20 L 44 20 L 44 25 L 37 25 Z M 37 20 " clip-rule="nonzero"/></clipPath><clipPath id="84f270a972"><path d="M 47.511719 14.722656 L 35.105469 45.304688 L -1.730469 30.359375 L 10.679688 -0.21875 Z M 47.511719 14.722656 " clip-rule="nonzero"/></clipPath><clipPath id="25510ea444"><path d="M 35.085938 45.347656 L 47.496094 14.769531 L 10.660156 -0.175781 L -1.746094 30.402344 Z M 35.085938 45.347656 " clip-rule="nonzero"/></clipPath><clipPath id="6c0ee65ff2"><path d="M 35.085938 45.347656 L 47.496094 14.769531 L 10.660156 -0.175781 L -1.746094 30.402344 Z M 35.085938 45.347656 " clip-rule="nonzero"/></clipPath><clipPath id="77c73bd601"><path d="M 37 20 L 45 20 L 45 26 L 37 26 Z M 37 20 " clip-rule="nonzero"/></clipPath><clipPath id="7c6fd79d63"><path d="M 47.511719 14.722656 L 35.105469 45.304688 L -1.730469 30.359375 L 10.679688 -0.21875 Z M 47.511719 14.722656 " clip-rule="nonzero"/></clipPath><clipPath id="98f4acd9c5"><path d="M 35.085938 45.347656 L 47.496094 14.769531 L 10.660156 -0.175781 L -1.746094 30.402344 Z M 35.085938 45.347656 " clip-rule="nonzero"/></clipPath><clipPath id="e43dd32520"><path d="M 35.085938 45.347656 L 47.496094 14.769531 L 10.660156 -0.175781 L -1.746094 30.402344 Z M 35.085938 45.347656 " clip-rule="nonzero"/></clipPath><clipPath id="1fc2c00d75"><path d="M 8 5 L 13 5 L 13 8 L 8 8 Z M 8 5 " clip-rule="nonzero"/></clipPath><clipPath id="60174e4744"><path d="M 47.511719 14.722656 L 35.105469 45.304688 L -1.730469 30.359375 L 10.679688 -0.21875 Z M 47.511719 14.722656 " clip-rule="nonzero"/></clipPath><clipPath id="e477069c13"><path d="M 35.085938 45.347656 L 47.496094 14.769531 L 10.660156 -0.175781 L -1.746094 30.402344 Z M 35.085938 45.347656 " clip-rule="nonzero"/></clipPath><clipPath id="8ee0b033e8"><path d="M 35.085938 45.347656 L 47.496094 14.769531 L 10.660156 -0.175781 L -1.746094 30.402344 Z M 35.085938 45.347656 " clip-rule="nonzero"/></clipPath><clipPath id="73e272fb2c"><path d="M 8 5 L 13 5 L 13 9 L 8 9 Z M 8 5 " clip-rule="nonzero"/></clipPath><clipPath id="bd6906b4ce"><path d="M 47.511719 14.722656 L 35.105469 45.304688 L -1.730469 30.359375 L 10.679688 -0.21875 Z M 47.511719 14.722656 " clip-rule="nonzero"/></clipPath><clipPath id="70d8009663"><path d="M 35.085938 45.347656 L 47.496094 14.769531 L 10.660156 -0.175781 L -1.746094 30.402344 Z M 35.085938 45.347656 " clip-rule="nonzero"/></clipPath><clipPath id="d6ada8e72f"><path d="M 35.085938 45.347656 L 47.496094 14.769531 L 10.660156 -0.175781 L -1.746094 30.402344 Z M 35.085938 45.347656 " clip-rule="nonzero"/></clipPath><clipPath id="1eb61ce192"><path d="M 7 20 L 31 20 L 31 32 L 7 32 Z M 7 20 " clip-rule="nonzero"/></clipPath><clipPath id="1715118160"><path d="M 47.511719 14.722656 L 35.105469 45.304688 L -1.730469 30.359375 L 10.679688 -0.21875 Z M 47.511719 14.722656 " clip-rule="nonzero"/></clipPath><clipPath id="c2b4b2d061"><path d="M 35.085938 45.347656 L 47.496094 14.769531 L 10.660156 -0.175781 L -1.746094 30.402344 Z M 35.085938 45.347656 " clip-rule="nonzero"/></clipPath><clipPath id="3a9160df45"><path d="M 35.085938 45.347656 L 47.496094 14.769531 L 10.660156 -0.175781 L -1.746094 30.402344 Z M 35.085938 45.347656 " clip-rule="nonzero"/></clipPath><clipPath id="6f111062be"><path d="M 7 20 L 32 20 L 32 32 L 7 32 Z M 7 20 " clip-rule="nonzero"/></clipPath><clipPath id="1e510519ce"><path d="M 47.511719 14.722656 L 35.105469 45.304688 L -1.730469 30.359375 L 10.679688 -0.21875 Z M 47.511719 14.722656 " clip-rule="nonzero"/></clipPath><clipPath id="d7ede035d8"><path d="M 35.085938 45.347656 L 47.496094 14.769531 L 10.660156 -0.175781 L -1.746094 30.402344 Z M 35.085938 45.347656 " clip-rule="nonzero"/></clipPath><clipPath id="2d4ea4da7e"><path d="M 35.085938 45.347656 L 47.496094 14.769531 L 10.660156 -0.175781 L -1.746094 30.402344 Z M 35.085938 45.347656 " clip-rule="nonzero"/></clipPath><clipPath id="5c0c6533e6"><path d="M 10 5 L 36 5 L 36 37 L 10 37 Z M 10 5 " clip-rule="nonzero"/></clipPath><clipPath id="1be8351c18"><path d="M 47.511719 14.722656 L 35.105469 45.304688 L -1.730469 30.359375 L 10.679688 -0.21875 Z M 47.511719 14.722656 " clip-rule="nonzero"/></clipPath><clipPath id="c9b17ecedb"><path d="M 35.085938 45.347656 L 47.496094 14.769531 L 10.660156 -0.175781 L -1.746094 30.402344 Z M 35.085938 45.347656 " clip-rule="nonzero"/></clipPath><clipPath id="aba626ad30"><path d="M 35.085938 45.347656 L 47.496094 14.769531 L 10.660156 -0.175781 L -1.746094 30.402344 Z M 35.085938 45.347656 " clip-rule="nonzero"/></clipPath><clipPath id="3e58ce3ce3"><path d="M 10 5 L 37 5 L 37 38 L 10 38 Z M 10 5 " clip-rule="nonzero"/></clipPath><clipPath id="1233225b40"><path d="M 47.511719 14.722656 L 35.105469 45.304688 L -1.730469 30.359375 L 10.679688 -0.21875 Z M 47.511719 14.722656 " clip-rule="nonzero"/></clipPath><clipPath id="7f0f247e1c"><path d="M 35.085938 45.347656 L 47.496094 14.769531 L 10.660156 -0.175781 L -1.746094 30.402344 Z M 35.085938 45.347656 " clip-rule="nonzero"/></clipPath><clipPath id="d8d801fe49"><path d="M 35.085938 45.347656 L 47.496094 14.769531 L 10.660156 -0.175781 L -1.746094 30.402344 Z M 35.085938 45.347656 " clip-rule="nonzero"/></clipPath><clipPath id="82ebdb196f"><path d="M 28 16 L 40 16 L 40 28 L 28 28 Z M 28 16 " clip-rule="nonzero"/></clipPath><clipPath id="a3d56bd803"><path d="M 47.511719 14.722656 L 35.105469 45.304688 L -1.730469 30.359375 L 10.679688 -0.21875 Z M 47.511719 14.722656 " clip-rule="nonzero"/></clipPath><clipPath id="36c073e2c2"><path d="M 35.085938 45.347656 L 47.496094 14.769531 L 10.660156 -0.175781 L -1.746094 30.402344 Z M 35.085938 45.347656 " clip-rule="nonzero"/></clipPath><clipPath id="6c887a0403"><path d="M 35.085938 45.347656 L 47.496094 14.769531 L 10.660156 -0.175781 L -1.746094 30.402344 Z M 35.085938 45.347656 " clip-rule="nonzero"/></clipPath><clipPath id="898d4bb7ca"><path d="M 28 15 L 40 15 L 40 28 L 28 28 Z M 28 15 " clip-rule="nonzero"/></clipPath><clipPath id="b9a04947dc"><path d="M 47.511719 14.722656 L 35.105469 45.304688 L -1.730469 30.359375 L 10.679688 -0.21875 Z M 47.511719 14.722656 " clip-rule="nonzero"/></clipPath><clipPath id="b01aada73a"><path d="M 35.085938 45.347656 L 47.496094 14.769531 L 10.660156 -0.175781 L -1.746094 30.402344 Z M 35.085938 45.347656 " clip-rule="nonzero"/></clipPath><clipPath id="7e2b6378d3"><path d="M 35.085938 45.347656 L 47.496094 14.769531 L 10.660156 -0.175781 L -1.746094 30.402344 Z M 35.085938 45.347656 " clip-rule="nonzero"/></clipPath><clipPath id="de95b4728a"><path d="M 30 18 L 38 18 L 38 26 L 30 26 Z M 30 18 " clip-rule="nonzero"/></clipPath><clipPath id="a76f2c528e"><path d="M 47.511719 14.722656 L 35.105469 45.304688 L -1.730469 30.359375 L 10.679688 -0.21875 Z M 47.511719 14.722656 " clip-rule="nonzero"/></clipPath><clipPath id="d4f011323d"><path d="M 35.085938 45.347656 L 47.496094 14.769531 L 10.660156 -0.175781 L -1.746094 30.402344 Z M 35.085938 45.347656 " clip-rule="nonzero"/></clipPath><clipPath id="bf027de6f8"><path d="M 35.085938 45.347656 L 47.496094 14.769531 L 10.660156 -0.175781 L -1.746094 30.402344 Z M 35.085938 45.347656 " clip-rule="nonzero"/></clipPath><clipPath id="f29ae0cf8b"><path d="M 30 17 L 38 17 L 38 26 L 30 26 Z M 30 17 " clip-rule="nonzero"/></clipPath><clipPath id="70845a4138"><path d="M 47.511719 14.722656 L 35.105469 45.304688 L -1.730469 30.359375 L 10.679688 -0.21875 Z M 47.511719 14.722656 " clip-rule="nonzero"/></clipPath><clipPath id="f316c75352"><path d="M 35.085938 45.347656 L 47.496094 14.769531 L 10.660156 -0.175781 L -1.746094 30.402344 Z M 35.085938 45.347656 " clip-rule="nonzero"/></clipPath><clipPath id="958430b5ee"><path d="M 35.085938 45.347656 L 47.496094 14.769531 L 10.660156 -0.175781 L -1.746094 30.402344 Z M 35.085938 45.347656 " clip-rule="nonzero"/></clipPath><clipPath id="d7725082a1"><path d="M 38 13 L 45 13 L 45 19 L 38 19 Z M 38 13 " clip-rule="nonzero"/></clipPath><clipPath id="a4a63c114e"><path d="M 47.511719 14.722656 L 35.105469 45.304688 L -1.730469 30.359375 L 10.679688 -0.21875 Z M 47.511719 14.722656 " clip-rule="nonzero"/></clipPath><clipPath id="c243377048"><path d="M 35.085938 45.347656 L 47.496094 14.769531 L 10.660156 -0.175781 L -1.746094 30.402344 Z M 35.085938 45.347656 " clip-rule="nonzero"/></clipPath><clipPath id="957338d5ce"><path d="M 35.085938 45.347656 L 47.496094 14.769531 L 10.660156 -0.175781 L -1.746094 30.402344 Z M 35.085938 45.347656 " clip-rule="nonzero"/></clipPath><clipPath id="8ad1c60d45"><path d="M 38 12 L 45 12 L 45 20 L 38 20 Z M 38 12 " clip-rule="nonzero"/></clipPath><clipPath id="68545c47dd"><path d="M 47.511719 14.722656 L 35.105469 45.304688 L -1.730469 30.359375 L 10.679688 -0.21875 Z M 47.511719 14.722656 " clip-rule="nonzero"/></clipPath><clipPath id="f169246bc7"><path d="M 35.085938 45.347656 L 47.496094 14.769531 L 10.660156 -0.175781 L -1.746094 30.402344 Z M 35.085938 45.347656 " clip-rule="nonzero"/></clipPath><clipPath id="61209eb6f6"><path d="M 35.085938 45.347656 L 47.496094 14.769531 L 10.660156 -0.175781 L -1.746094 30.402344 Z M 35.085938 45.347656 " clip-rule="nonzero"/></clipPath><clipPath id="fa0fdf5bb2"><path d="M 14 31 L 20 31 L 20 38 L 14 38 Z M 14 31 " clip-rule="nonzero"/></clipPath><clipPath id="472e49e259"><path d="M 47.511719 14.722656 L 35.105469 45.304688 L -1.730469 30.359375 L 10.679688 -0.21875 Z M 47.511719 14.722656 " clip-rule="nonzero"/></clipPath><clipPath id="da8e509f26"><path d="M 35.085938 45.347656 L 47.496094 14.769531 L 10.660156 -0.175781 L -1.746094 30.402344 Z M 35.085938 45.347656 " clip-rule="nonzero"/></clipPath><clipPath id="8cb7934eec"><path d="M 35.085938 45.347656 L 47.496094 14.769531 L 10.660156 -0.175781 L -1.746094 30.402344 Z M 35.085938 45.347656 " clip-rule="nonzero"/></clipPath><clipPath id="1b6975e4b1"><path d="M 14 31 L 21 31 L 21 38 L 14 38 Z M 14 31 " clip-rule="nonzero"/></clipPath><clipPath id="3c0f1393c1"><path d="M 47.511719 14.722656 L 35.105469 45.304688 L -1.730469 30.359375 L 10.679688 -0.21875 Z M 47.511719 14.722656 " clip-rule="nonzero"/></clipPath><clipPath id="74329dcafb"><path d="M 35.085938 45.347656 L 47.496094 14.769531 L 10.660156 -0.175781 L -1.746094 30.402344 Z M 35.085938 45.347656 " clip-rule="nonzero"/></clipPath><clipPath id="964886bf4e"><path d="M 35.085938 45.347656 L 47.496094 14.769531 L 10.660156 -0.175781 L -1.746094 30.402344 Z M 35.085938 45.347656 " clip-rule="nonzero"/></clipPath></defs><g clip-path="url(#02a6b82a6d)"><g clip-path="url(#84f270a972)"><g clip-path="url(#25510ea444)"><g clip-path="url(#6c0ee65ff2)"><path fill="#ef2e68" d="M 38.285156 23.746094 C 38.089844 23.707031 37.964844 23.515625 38.003906 23.320312 L 38.558594 20.636719 C 38.597656 20.4375 38.789062 20.3125 38.984375 20.355469 L 43.4375 21.257812 C 43.632812 21.296875 43.757812 21.488281 43.714844 21.683594 L 43.164062 24.367188 C 43.121094 24.5625 42.933594 24.691406 42.738281 24.648438 L 38.285156 23.746094 " fill-opacity="1" fill-rule="nonzero"/></g></g></g></g><g clip-path="url(#77c73bd601)"><g clip-path="url(#7c6fd79d63)"><g clip-path="url(#98f4acd9c5)"><g clip-path="url(#e43dd32520)"><path stroke-linecap="round" transform="matrix(0.00651365, -0.0160544, 0.0159316, 0.00646383, -24.860519, 42.968018)" fill="none" stroke-linejoin="round" d="M 2398.321444 2982.998162 C 2396.172415 2971.617332 2403.697139 2960.694775 2414.99092 2958.529182 L 2570.557383 2929.742389 C 2582.060086 2927.491378 2592.899099 2935.074101 2594.839205 2946.54035 L 2643.21029 3206.279538 C 2645.359319 3217.660369 2637.834595 3228.582926 2626.456049 3230.537986 L 2470.97435 3259.535312 C 2459.595805 3261.490371 2448.632635 3254.2036 2446.692529 3242.737351 Z M 2398.321444 2982.998162 " stroke="#000000" stroke-width="40" stroke-opacity="1" stroke-miterlimit="10"/></g></g></g></g><g clip-path="url(#1fc2c00d75)"><g clip-path="url(#60174e4744)"><g clip-path="url(#e477069c13)"><g clip-path="url(#8ee0b033e8)"><path fill="#1a3259" d="M 12.101562 6.199219 L 11.054688 7.898438 L 8.75 5.5 Z M 12.101562 6.199219 " fill-opacity="1" fill-rule="nonzero"/></g></g></g></g><g clip-path="url(#73e272fb2c)"><g clip-path="url(#bd6906b4ce)"><g clip-path="url(#70d8009663)"><g clip-path="url(#d6ada8e72f)"><path stroke-linecap="round" transform="matrix(0.00651365, -0.0160544, 0.0159316, 0.00646383, -24.860519, 42.968018)" fill="none" stroke-linejoin="round" d="M 2768.62132 1188.096368 L 2655.022948 1168.830566 L 2733.290016 992.169222 Z M 2768.62132 1188.096368 " stroke="#000000" stroke-width="40" stroke-opacity="1" stroke-miterlimit="10"/></g></g></g></g><g clip-path="url(#1eb61ce192)"><g clip-path="url(#1715118160)"><g clip-path="url(#c2b4b2d061)"><g clip-path="url(#3a9160df45)"><path fill="#1f3a68" d="M 30.730469 24.679688 L 13.910156 26.976562 L 14.0625 28.046875 L 15.683594 27.8125 L 16.039062 30.375 L 9.515625 31.320312 L 9.164062 28.757812 L 10.53125 28.558594 L 10.378906 27.460938 L 7.546875 27.847656 L 7.414062 26.503906 L 29.90625 20.699219 L 30.730469 24.679688 " fill-opacity="1" fill-rule="nonzero"/></g></g></g></g><g clip-path="url(#6f111062be)"><g clip-path="url(#1e510519ce)"><g clip-path="url(#d7ede035d8)"><g clip-path="url(#2d4ea4da7e)"><path stroke-linecap="round" transform="matrix(0.00651365, -0.0160544, 0.0159316, 0.00646383, -24.860519, 42.968018)" fill="none" stroke-linejoin="round" d="M 2184.453258 2596.242501 L 1696.608291 1739.913788 L 1642.669339 1771.529224 L 1690.382208 1853.77528 L 1561.042611 1928.968272 L 1368.925641 1598.049557 L 1498.350003 1523.067098 L 1538.672837 1592.39728 L 1594.074247 1560.183915 L 1511.936219 1416.003973 L 1580.923578 1379.46191 L 2379.459945 2464.778665 Z M 2184.453258 2596.242501 " stroke="#000000" stroke-width="40" stroke-opacity="1" stroke-miterlimit="10"/></g></g></g></g><g clip-path="url(#5c0c6533e6)"><g clip-path="url(#1be8351c18)"><g clip-path="url(#c9b17ecedb)"><g clip-path="url(#aba626ad30)"><path fill="#4eb1cb" d="M 11.585938 5.785156 L 34.101562 17.980469 L 31.972656 21.535156 L 22.910156 15.714844 C 22.152344 16.640625 21.535156 17.671875 21.078125 18.800781 C 18.617188 24.859375 21.507812 31.769531 27.519531 34.207031 C 29.835938 35.148438 32.339844 35.324219 34.765625 34.714844 C 35.230469 34.597656 35.699219 34.882812 35.8125 35.347656 C 35.925781 35.816406 35.640625 36.292969 35.175781 36.410156 C 32.394531 37.105469 29.519531 36.90625 26.863281 35.828125 C 19.964844 33.03125 16.648438 25.101562 19.46875 18.148438 C 19.96875 16.917969 20.628906 15.789062 21.4375 14.769531 L 10.433594 7.703125 L 11.585938 5.785156 " fill-opacity="1" fill-rule="nonzero"/></g></g></g></g><g clip-path="url(#3e58ce3ce3)"><g clip-path="url(#1233225b40)"><g clip-path="url(#7f0f247e1c)"><g clip-path="url(#d8d801fe49)"><path fill="#000000" d="M 27.847656 36.546875 L 27.683594 36.496094 C 27.59375 36.464844 27.523438 36.410156 27.480469 36.324219 C 27.4375 36.238281 27.429688 36.152344 27.460938 36.0625 C 27.488281 35.96875 27.546875 35.902344 27.628906 35.859375 C 27.714844 35.8125 27.800781 35.804688 27.894531 35.835938 L 28.058594 35.886719 C 28.148438 35.914062 28.214844 35.972656 28.257812 36.054688 C 28.300781 36.140625 28.308594 36.230469 28.28125 36.320312 C 28.25 36.410156 28.195312 36.480469 28.109375 36.523438 C 28.023438 36.566406 27.9375 36.574219 27.847656 36.546875 Z M 26.363281 35.992188 C 24.6875 35.253906 23.21875 34.226562 21.957031 32.902344 C 20.742188 31.625 19.796875 30.160156 19.132812 28.507812 C 18.46875 26.855469 18.128906 25.140625 18.121094 23.363281 C 18.109375 21.519531 18.453125 19.742188 19.148438 18.019531 C 19.660156 16.761719 20.335938 15.605469 21.171875 14.554688 L 21.4375 14.769531 L 21.253906 15.0625 L 10.246094 7.996094 C 10.167969 7.945312 10.117188 7.875 10.097656 7.78125 C 10.074219 7.691406 10.089844 7.605469 10.136719 7.523438 L 11.292969 5.609375 C 11.339844 5.53125 11.40625 5.476562 11.496094 5.453125 C 11.585938 5.429688 11.671875 5.4375 11.75 5.480469 L 34.269531 17.675781 C 34.351562 17.71875 34.40625 17.789062 34.433594 17.878906 C 34.460938 17.972656 34.449219 18.058594 34.40625 18.144531 C 34.402344 18.148438 34.402344 18.152344 34.398438 18.15625 L 32.269531 21.714844 C 32.21875 21.796875 32.148438 21.847656 32.054688 21.871094 C 31.964844 21.894531 31.875 21.882812 31.796875 21.835938 C 31.792969 21.832031 31.789062 21.832031 31.785156 21.828125 L 22.726562 16.007812 L 22.910156 15.714844 L 23.175781 15.933594 C 22.429688 16.84375 21.835938 17.839844 21.394531 18.933594 C 20.808594 20.375 20.527344 21.871094 20.546875 23.414062 C 20.5625 24.910156 20.863281 26.347656 21.441406 27.726562 C 22.015625 29.109375 22.828125 30.324219 23.875 31.378906 C 24.957031 32.46875 26.214844 33.304688 27.648438 33.886719 C 28.773438 34.34375 29.933594 34.613281 31.128906 34.699219 C 32.320312 34.78125 33.507812 34.675781 34.683594 34.378906 C 35.007812 34.296875 35.3125 34.34375 35.597656 34.515625 C 35.882812 34.6875 36.066406 34.9375 36.148438 35.265625 C 36.226562 35.59375 36.179688 35.898438 36.007812 36.1875 C 35.832031 36.476562 35.582031 36.664062 35.257812 36.746094 C 33.183594 37.265625 31.113281 37.304688 29.042969 36.859375 C 28.949219 36.839844 28.878906 36.789062 28.828125 36.710938 C 28.773438 36.628906 28.757812 36.542969 28.78125 36.449219 C 28.800781 36.355469 28.851562 36.28125 28.929688 36.230469 C 29.011719 36.179688 29.097656 36.164062 29.191406 36.183594 C 31.15625 36.605469 33.125 36.566406 35.09375 36.074219 C 35.234375 36.039062 35.34375 35.957031 35.417969 35.832031 C 35.492188 35.707031 35.511719 35.574219 35.480469 35.433594 C 35.445312 35.292969 35.367188 35.183594 35.242188 35.109375 C 35.117188 35.035156 34.984375 35.015625 34.84375 35.050781 C 33.597656 35.363281 32.34375 35.476562 31.074219 35.386719 C 29.808594 35.300781 28.578125 35.011719 27.386719 34.53125 C 25.871094 33.914062 24.535156 33.027344 23.386719 31.871094 C 22.277344 30.753906 21.417969 29.460938 20.804688 28 C 20.191406 26.535156 19.875 25.011719 19.855469 23.429688 C 19.835938 21.789062 20.136719 20.203125 20.757812 18.671875 C 21.226562 17.515625 21.855469 16.457031 22.644531 15.496094 C 22.777344 15.339844 22.925781 15.3125 23.097656 15.425781 L 32.160156 21.246094 L 31.972656 21.535156 L 31.679688 21.359375 L 33.808594 17.800781 L 34.101562 17.980469 L 33.9375 18.285156 L 11.421875 6.089844 L 11.585938 5.785156 L 11.878906 5.964844 L 10.726562 7.878906 L 10.433594 7.703125 L 10.617188 7.410156 L 21.625 14.480469 C 21.636719 14.484375 21.644531 14.492188 21.65625 14.5 C 21.730469 14.558594 21.769531 14.636719 21.78125 14.730469 C 21.792969 14.828125 21.765625 14.910156 21.707031 14.984375 C 20.914062 15.984375 20.273438 17.082031 19.789062 18.28125 C 19.125 19.914062 18.796875 21.605469 18.808594 23.355469 C 18.816406 25.042969 19.140625 26.671875 19.773438 28.246094 C 20.402344 29.816406 21.300781 31.207031 22.457031 32.421875 C 23.652344 33.679688 25.046875 34.65625 26.640625 35.359375 C 26.726562 35.394531 26.789062 35.460938 26.824219 35.546875 C 26.855469 35.636719 26.855469 35.726562 26.816406 35.8125 C 26.777344 35.902344 26.714844 35.960938 26.625 35.996094 C 26.539062 36.03125 26.449219 36.03125 26.363281 35.992188 Z M 26.363281 35.992188 " fill-opacity="1" fill-rule="nonzero"/></g></g></g></g><g clip-path="url(#82ebdb196f)"><g clip-path="url(#a3d56bd803)"><g clip-path="url(#36c073e2c2)"><g clip-path="url(#6c887a0403)"><path fill="#1f3a68" d="M 31.949219 26.796875 C 29.132812 25.652344 27.78125 22.421875 28.933594 19.582031 C 30.085938 16.742188 33.304688 15.367188 36.125 16.507812 C 38.945312 17.652344 40.292969 20.882812 39.140625 23.722656 C 37.988281 26.566406 34.769531 27.941406 31.949219 26.796875 " fill-opacity="1" fill-rule="nonzero"/></g></g></g></g><g clip-path="url(#898d4bb7ca)"><g clip-path="url(#b9a04947dc)"><g clip-path="url(#b01aada73a)"><g clip-path="url(#7e2b6378d3)"><path stroke-linecap="round" transform="matrix(0.00651365, -0.0160544, 0.0159316, 0.00646383, -24.860519, 42.968018)" fill="none" stroke-linejoin="round" d="M 2097.663921 2708.225566 C 2097.76261 2531.403728 2241.212872 2387.918288 2418.105298 2387.926295 C 2594.997724 2387.934301 2738.384912 2531.346137 2738.579911 2708.293089 C 2738.565987 2885.325461 2595.03096 3028.600367 2418.138534 3028.592361 C 2241.037185 3028.669773 2097.649998 2885.257937 2097.663921 2708.225566 Z M 2097.663921 2708.225566 " stroke="#000000" stroke-width="40" stroke-opacity="1" stroke-miterlimit="10"/></g></g></g></g><g clip-path="url(#de95b4728a)"><g clip-path="url(#a76f2c528e)"><g clip-path="url(#d4f011323d)"><g clip-path="url(#bf027de6f8)"><path fill="#ffffff" d="M 32.730469 24.871094 C 30.96875 24.15625 30.125 22.136719 30.84375 20.359375 C 31.566406 18.582031 33.582031 17.722656 35.34375 18.4375 C 37.105469 19.152344 37.953125 21.171875 37.230469 22.949219 C 36.511719 24.726562 34.496094 25.585938 32.730469 24.871094 " fill-opacity="1" fill-rule="nonzero"/></g></g></g></g><g clip-path="url(#f29ae0cf8b)"><g clip-path="url(#70845a4138)"><g clip-path="url(#f316c75352)"><g clip-path="url(#958430b5ee)"><path stroke-linecap="round" transform="matrix(0.00651365, -0.0160544, 0.0159316, 0.00646383, -24.860519, 42.968018)" fill="none" stroke-linejoin="round" d="M 2217.615777 2708.22086 C 2217.619556 2597.638938 2307.323276 2508.002495 2417.979832 2507.875162 C 2528.721153 2507.958362 2618.42291 2597.801293 2618.419132 2708.383214 C 2618.415354 2818.965136 2528.796399 2908.812113 2418.055078 2908.728912 C 2307.398522 2908.856245 2217.696764 2819.013314 2217.615777 2708.22086 Z M 2217.615777 2708.22086 " stroke="#000000" stroke-width="40" stroke-opacity="1" stroke-miterlimit="10"/></g></g></g></g><g clip-path="url(#d7725082a1)"><g clip-path="url(#a4a63c114e)"><g clip-path="url(#c243377048)"><g clip-path="url(#957338d5ce)"><path fill="#ffffff" d="M 42.703125 13.277344 C 41.539062 15.585938 41.3125 15.679688 38.859375 14.917969 C 41.152344 16.078125 41.246094 16.304688 40.472656 18.773438 C 41.640625 16.464844 41.867188 16.367188 44.316406 17.132812 C 42.027344 15.96875 41.933594 15.746094 42.703125 13.277344 " fill-opacity="1" fill-rule="nonzero"/></g></g></g></g><g clip-path="url(#8ad1c60d45)"><g clip-path="url(#68545c47dd)"><g clip-path="url(#f169246bc7)"><g clip-path="url(#61209eb6f6)"><path stroke-linecap="round" transform="matrix(0.00651365, -0.0160544, 0.0159316, 0.00646383, -24.860519, 42.968018)" fill="none" stroke-linejoin="round" d="M 3054.103308 2992.189478 C 2905.370059 2979.932965 2895.439542 2969.772099 2882.94697 2820.900829 C 2870.654068 2969.85293 2860.57092 2979.859989 2711.748354 2992.158924 C 2860.566368 3004.62597 2870.705808 3014.701419 2882.904693 3163.447574 C 2895.491281 3014.620587 2905.365507 3004.698946 3054.103308 2992.189478 Z M 3054.103308 2992.189478 " stroke="#000000" stroke-width="40" stroke-opacity="1" stroke-miterlimit="10"/></g></g></g></g><g clip-path="url(#fa0fdf5bb2)"><g clip-path="url(#472e49e259)"><g clip-path="url(#da8e509f26)"><g clip-path="url(#8cb7934eec)"><path fill="#ffffff" d="M 18.351562 31.703125 C 17.1875 34.011719 16.960938 34.109375 14.507812 33.347656 C 16.800781 34.507812 16.894531 34.730469 16.121094 37.199219 C 17.289062 34.890625 17.511719 34.796875 19.964844 35.558594 C 17.675781 34.398438 17.578125 34.171875 18.351562 31.703125 " fill-opacity="1" fill-rule="nonzero"/></g></g></g></g><g clip-path="url(#1b6975e4b1)"><g clip-path="url(#3c0f1393c1)"><g clip-path="url(#74329dcafb)"><g clip-path="url(#964886bf4e)"><path stroke-linecap="round" transform="matrix(0.00651365, -0.0160544, 0.0159316, 0.00646383, -24.860519, 42.968018)" fill="none" stroke-linejoin="round" d="M 1540.189863 2082.64603 C 1391.456614 2070.389517 1381.317174 2060.314069 1368.824602 1911.442799 C 1356.531701 2060.3949 1346.657476 2070.316541 1197.83491 2082.615476 C 1346.652924 2095.082522 1356.498676 2105.032856 1368.991248 2253.904126 C 1381.368914 2105.162558 1391.367297 2094.944965 1540.189863 2082.64603 Z M 1540.189863 2082.64603 " stroke="#000000" stroke-width="40" stroke-opacity="1" stroke-miterlimit="10"/></g></g></g></g></svg>