<svg xmlns="http://www.w3.org/2000/svg" xmlns:xlink="http://www.w3.org/1999/xlink" width="60" zoomAndPan="magnify" viewBox="0 0 45 44.999999" height="60" preserveAspectRatio="xMidYMid meet" version="1.0"><defs><clipPath id="da0f22cbe8"><path d="M 16 7.367188 L 21 7.367188 L 21 12 L 16 12 Z M 16 7.367188 " clip-rule="nonzero"/></clipPath><clipPath id="7630f645f7"><path d="M 15 35 L 17 35 L 17 38.117188 L 15 38.117188 Z M 15 35 " clip-rule="nonzero"/></clipPath><clipPath id="c3409c4d25"><path d="M 14.882812 15 L 21 15 L 21 37 L 14.882812 37 Z M 14.882812 15 " clip-rule="nonzero"/></clipPath><clipPath id="b94a311d67"><path d="M 29 25 L 33.632812 25 L 33.632812 32 L 29 32 Z M 29 25 " clip-rule="nonzero"/></clipPath></defs><g clip-path="url(#da0f22cbe8)"><path fill="#000000" d="M 20.058594 11.148438 C 20.085938 11.304688 19.984375 11.449219 19.832031 11.480469 L 17.734375 11.871094 C 17.582031 11.898438 17.433594 11.796875 17.40625 11.644531 L 16.753906 8.121094 C 16.726562 7.96875 16.828125 7.820312 16.980469 7.792969 L 19.078125 7.402344 C 19.230469 7.375 19.378906 7.472656 19.40625 7.628906 L 20.058594 11.148438 " fill-opacity="1" fill-rule="nonzero"/></g><g clip-path="url(#7630f645f7)"><path fill="#1a3259" d="M 15.0625 35.472656 L 16.59375 35.738281 L 15.539062 38.128906 Z M 15.0625 35.472656 " fill-opacity="1" fill-rule="nonzero"/></g><g clip-path="url(#c3409c4d25)"><path fill="#000000" d="M 16.636719 36.246094 L 14.917969 35.972656 L 17.121094 15.914062 L 20.308594 16.414062 L 16.636719 36.246094 " fill-opacity="1" fill-rule="nonzero"/></g><path fill="#000000" d="M 31.082031 32.878906 L 32.007812 32.382812 L 22.941406 16.390625 L 20.308594 18.171875 L 31.082031 32.878906 " fill-opacity="1" fill-rule="nonzero"/><path fill="#000000" d="M 24.109375 14.871094 C 24.109375 17.269531 22.175781 19.214844 19.789062 19.214844 C 17.40625 19.214844 15.46875 17.269531 15.46875 14.871094 C 15.46875 12.472656 17.40625 10.53125 19.789062 10.53125 C 22.175781 10.53125 24.109375 12.472656 24.109375 14.871094 " fill-opacity="1" fill-rule="nonzero"/><path fill="#ffffff" d="M 22.492188 14.871094 C 22.492188 16.371094 21.28125 17.585938 19.789062 17.585938 C 18.296875 17.585938 17.085938 16.371094 17.085938 14.871094 C 17.085938 13.371094 18.296875 12.15625 19.789062 12.15625 C 21.28125 12.15625 22.492188 13.371094 22.492188 14.871094 " fill-opacity="1" fill-rule="nonzero"/><g clip-path="url(#b94a311d67)"><path fill="#000000" d="M 33.601562 30.21875 L 31.855469 31.234375 L 29.265625 26.753906 L 31.011719 25.734375 L 33.601562 30.21875 " fill-opacity="1" fill-rule="nonzero"/></g><path fill="#000000" d="M 32.015625 29.78125 L 30.269531 30.800781 L 28.871094 28.375 L 30.613281 27.355469 L 32.015625 29.78125 " fill-opacity="1" fill-rule="nonzero"/><path fill="#000000" d="M 21.527344 26.550781 C 19.933594 26.550781 18.402344 26.203125 16.972656 25.515625 C 16.632812 25.355469 16.488281 24.945312 16.652344 24.605469 C 16.8125 24.265625 17.21875 24.121094 17.558594 24.285156 C 18.804688 24.882812 20.136719 25.183594 21.527344 25.183594 C 26.613281 25.183594 30.753906 21.023438 30.753906 15.914062 C 30.753906 13.941406 30.144531 12.058594 29 10.46875 C 28.777344 10.164062 28.84375 9.738281 29.148438 9.515625 C 29.453125 9.292969 29.878906 9.363281 30.097656 9.667969 C 31.417969 11.492188 32.113281 13.652344 32.113281 15.914062 C 32.113281 21.777344 27.363281 26.550781 21.527344 26.550781 " fill-opacity="1" fill-rule="nonzero"/></svg>