<svg xmlns="http://www.w3.org/2000/svg" xmlns:xlink="http://www.w3.org/1999/xlink" width="793" zoomAndPan="magnify" viewBox="0 0 595.5 842.249979" height="1122" preserveAspectRatio="xMidYMid meet" version="1.0"><defs><clipPath id="02ae83f198"><path d="M 34.136719 399.386719 L 75.933594 399.386719 L 75.933594 441.1875 L 34.136719 441.1875 Z M 34.136719 399.386719 " clip-rule="nonzero"/></clipPath><clipPath id="a289cd0c76"><path d="M 55.035156 399.386719 C 43.492188 399.386719 34.136719 408.746094 34.136719 420.289062 C 34.136719 431.828125 43.492188 441.1875 55.035156 441.1875 C 66.578125 441.1875 75.933594 431.828125 75.933594 420.289062 C 75.933594 408.746094 66.578125 399.386719 55.035156 399.386719 " clip-rule="nonzero"/></clipPath><clipPath id="680fa45a91"><path d="M 157.78125 278.214844 L 199.578125 278.214844 L 199.578125 320.015625 L 157.78125 320.015625 Z M 157.78125 278.214844 " clip-rule="nonzero"/></clipPath><clipPath id="157e6e6da9"><path d="M 178.679688 278.214844 C 167.136719 278.214844 157.78125 287.574219 157.78125 299.117188 C 157.78125 310.65625 167.136719 320.015625 178.679688 320.015625 C 190.222656 320.015625 199.578125 310.65625 199.578125 299.117188 C 199.578125 287.574219 190.222656 278.214844 178.679688 278.214844 " clip-rule="nonzero"/></clipPath><clipPath id="5cdbed99dd"><path d="M 157.78125 399.386719 L 199.578125 399.386719 L 199.578125 441.1875 L 157.78125 441.1875 Z M 157.78125 399.386719 " clip-rule="nonzero"/></clipPath><clipPath id="12a059c77a"><path d="M 178.679688 399.386719 C 167.136719 399.386719 157.78125 408.746094 157.78125 420.289062 C 157.78125 431.828125 167.136719 441.1875 178.679688 441.1875 C 190.222656 441.1875 199.578125 431.828125 199.578125 420.289062 C 199.578125 408.746094 190.222656 399.386719 178.679688 399.386719 " clip-rule="nonzero"/></clipPath><clipPath id="822b906059"><path d="M 281.558594 155.710938 L 323.359375 155.710938 L 323.359375 197.507812 L 281.558594 197.507812 Z M 281.558594 155.710938 " clip-rule="nonzero"/></clipPath><clipPath id="a5170507d4"><path d="M 302.457031 155.710938 C 290.917969 155.710938 281.558594 165.066406 281.558594 176.609375 C 281.558594 188.152344 290.917969 197.507812 302.457031 197.507812 C 314 197.507812 323.359375 188.152344 323.359375 176.609375 C 323.359375 165.066406 314 155.710938 302.457031 155.710938 " clip-rule="nonzero"/></clipPath><clipPath id="425412e9c0"><path d="M 281.558594 399.386719 L 323.359375 399.386719 L 323.359375 441.1875 L 281.558594 441.1875 Z M 281.558594 399.386719 " clip-rule="nonzero"/></clipPath><clipPath id="3f33f2c1e2"><path d="M 302.457031 399.386719 C 290.917969 399.386719 281.558594 408.746094 281.558594 420.289062 C 281.558594 431.828125 290.917969 441.1875 302.457031 441.1875 C 314 441.1875 323.359375 431.828125 323.359375 420.289062 C 323.359375 408.746094 314 399.386719 302.457031 399.386719 " clip-rule="nonzero"/></clipPath><clipPath id="e5f5016daf"><path d="M 281.558594 644.339844 L 323.359375 644.339844 L 323.359375 686.136719 L 281.558594 686.136719 Z M 281.558594 644.339844 " clip-rule="nonzero"/></clipPath><clipPath id="38d03e4746"><path d="M 302.457031 644.339844 C 290.917969 644.339844 281.558594 653.695312 281.558594 665.238281 C 281.558594 676.78125 290.917969 686.136719 302.457031 686.136719 C 314 686.136719 323.359375 676.78125 323.359375 665.238281 C 323.359375 653.695312 314 644.339844 302.457031 644.339844 " clip-rule="nonzero"/></clipPath><clipPath id="3d3108e8b0"><path d="M 405.203125 399.386719 L 447.003906 399.386719 L 447.003906 441.1875 L 405.203125 441.1875 Z M 405.203125 399.386719 " clip-rule="nonzero"/></clipPath><clipPath id="1311e0b3ea"><path d="M 426.105469 399.386719 C 414.5625 399.386719 405.203125 408.746094 405.203125 420.289062 C 405.203125 431.828125 414.5625 441.1875 426.105469 441.1875 C 437.644531 441.1875 447.003906 431.828125 447.003906 420.289062 C 447.003906 408.746094 437.644531 399.386719 426.105469 399.386719 " clip-rule="nonzero"/></clipPath><clipPath id="8e02e1d48e"><path d="M 405.203125 523.167969 L 447.003906 523.167969 L 447.003906 564.964844 L 405.203125 564.964844 Z M 405.203125 523.167969 " clip-rule="nonzero"/></clipPath><clipPath id="db48589826"><path d="M 426.105469 523.167969 C 414.5625 523.167969 405.203125 532.523438 405.203125 544.066406 C 405.203125 555.609375 414.5625 564.964844 426.105469 564.964844 C 437.644531 564.964844 447.003906 555.609375 447.003906 544.066406 C 447.003906 532.523438 437.644531 523.167969 426.105469 523.167969 " clip-rule="nonzero"/></clipPath><clipPath id="2e250c6071"><path d="M 519.339844 399.386719 L 561.140625 399.386719 L 561.140625 441.1875 L 519.339844 441.1875 Z M 519.339844 399.386719 " clip-rule="nonzero"/></clipPath><clipPath id="a258941b50"><path d="M 540.242188 399.386719 C 528.699219 399.386719 519.339844 408.746094 519.339844 420.289062 C 519.339844 431.828125 528.699219 441.1875 540.242188 441.1875 C 551.785156 441.1875 561.140625 431.828125 561.140625 420.289062 C 561.140625 408.746094 551.785156 399.386719 540.242188 399.386719 " clip-rule="nonzero"/></clipPath><clipPath id="9e5316b97f"><path d="M 0.015625 104 L 378 104 L 378 498 L 0.015625 498 Z M 0.015625 104 " clip-rule="nonzero"/></clipPath><clipPath id="9a03b44729"><path d="M 236 348 L 594.984375 348 L 594.984375 735 L 236 735 Z M 236 348 " clip-rule="nonzero"/></clipPath><clipPath id="46f0ea3a15"><path d="M 0.015625 348 L 594.984375 348 L 594.984375 494 L 0.015625 494 Z M 0.015625 348 " clip-rule="nonzero"/></clipPath></defs><g clip-path="url(#02ae83f198)"><g clip-path="url(#a289cd0c76)"><path fill="#000000" d="M 34.136719 399.386719 L 75.933594 399.386719 L 75.933594 441.1875 L 34.136719 441.1875 Z M 34.136719 399.386719 " fill-opacity="1" fill-rule="nonzero"/></g></g><g clip-path="url(#680fa45a91)"><g clip-path="url(#157e6e6da9)"><path fill="#000000" d="M 157.78125 278.214844 L 199.578125 278.214844 L 199.578125 320.015625 L 157.78125 320.015625 Z M 157.78125 278.214844 " fill-opacity="1" fill-rule="nonzero"/></g></g><g clip-path="url(#5cdbed99dd)"><g clip-path="url(#12a059c77a)"><path fill="#000000" d="M 157.78125 399.386719 L 199.578125 399.386719 L 199.578125 441.1875 L 157.78125 441.1875 Z M 157.78125 399.386719 " fill-opacity="1" fill-rule="nonzero"/></g></g><g clip-path="url(#822b906059)"><g clip-path="url(#a5170507d4)"><path fill="#000000" d="M 281.558594 155.710938 L 323.359375 155.710938 L 323.359375 197.507812 L 281.558594 197.507812 Z M 281.558594 155.710938 " fill-opacity="1" fill-rule="nonzero"/></g></g><g clip-path="url(#425412e9c0)"><g clip-path="url(#3f33f2c1e2)"><path fill="#000000" d="M 281.558594 399.386719 L 323.359375 399.386719 L 323.359375 441.1875 L 281.558594 441.1875 Z M 281.558594 399.386719 " fill-opacity="1" fill-rule="nonzero"/></g></g><g clip-path="url(#e5f5016daf)"><g clip-path="url(#38d03e4746)"><path fill="#000000" d="M 281.558594 644.339844 L 323.359375 644.339844 L 323.359375 686.136719 L 281.558594 686.136719 Z M 281.558594 644.339844 " fill-opacity="1" fill-rule="nonzero"/></g></g><g clip-path="url(#3d3108e8b0)"><g clip-path="url(#1311e0b3ea)"><path fill="#000000" d="M 405.203125 399.386719 L 447.003906 399.386719 L 447.003906 441.1875 L 405.203125 441.1875 Z M 405.203125 399.386719 " fill-opacity="1" fill-rule="nonzero"/></g></g><g clip-path="url(#8e02e1d48e)"><g clip-path="url(#db48589826)"><path fill="#000000" d="M 405.203125 523.167969 L 447.003906 523.167969 L 447.003906 564.964844 L 405.203125 564.964844 Z M 405.203125 523.167969 " fill-opacity="1" fill-rule="nonzero"/></g></g><g clip-path="url(#2e250c6071)"><g clip-path="url(#a258941b50)"><path fill="#000000" d="M 519.339844 399.386719 L 561.140625 399.386719 L 561.140625 441.1875 L 519.339844 441.1875 Z M 519.339844 399.386719 " fill-opacity="1" fill-rule="nonzero"/></g></g><g clip-path="url(#9e5316b97f)"><path stroke-linecap="butt" transform="matrix(0.532977, -0.526877, 0.527242, 0.533346, 48.754584, 421.133868)" fill="none" stroke-linejoin="miter" d="M -0.00229356 8.498965 L 473.334825 8.498418 " stroke="#000000" stroke-width="17" stroke-opacity="1" stroke-miterlimit="4"/></g><g clip-path="url(#9a03b44729)"><path stroke-linecap="butt" transform="matrix(0.524661, -0.536943, 0.536402, 0.524133, 303.882623, 658.072457)" fill="none" stroke-linejoin="miter" d="M -0.000361853 8.499167 L 449.551432 8.500907 " stroke="#000000" stroke-width="17" stroke-opacity="1" stroke-miterlimit="4"/></g><g clip-path="url(#46f0ea3a15)"><path stroke-linecap="butt" transform="matrix(0.7505, -0.00130952, 0.00130858, 0.749961, 53.312224, 415.083264)" fill="none" stroke-linejoin="miter" d="M 0.00116354 8.498804 L 651.540576 8.500994 " stroke="#000000" stroke-width="17" stroke-opacity="1" stroke-miterlimit="4"/></g></svg>